# xmcd
#
# Track frame offsets:
#	183
#	20283
#	47928
#	78640
#
# Disc length: 1423 seconds
#
# Revision: 4
# Processed by: cddbd v1.5.2PL0 Copyright (c) Steve Scherf et al.
# Submitted via: audiograbber 1.83.01
#
DISCID=2a058d04
DTITLE=Taylor Dayne - Can't Get Enough Of Your Love
DYEAR=1993
DGENRE=House
TTITLE0=Can't Get Enough Of Your Love (Single Version)
TTITLE1=Can't Get Enough Of Your Love (C&C Extended Club Mix I)
TTITLE2=Can't Get Enough Of Your Love (C&C Extended Club Mix II)
TTITLE3=Can't Get Enough Of Your Love (C&C Special Edition Mix)
EXTD=
EXTT0=
EXTT1=
EXTT2=
EXTT3=
PLAYORDER=
